<svg width="50" height="50" viewBox="0 0 50 50" fill="none" xmlns="http://www.w3.org/2000/svg">
<g id="Next Image" clip-path="url(#clip0_37_63)">
<g id="Next Image_2">
<path id="Vector" fill-rule="evenodd" clip-rule="evenodd" d="M33.4583 22.7917C34.0435 23.3776 34.3723 24.1719 34.3723 25C34.3723 25.8281 34.0435 26.6224 33.4583 27.2083L21.675 38.9958C21.0888 39.5818 20.2938 39.9109 19.4649 39.9107C18.636 39.9105 17.8412 39.581 17.2552 38.9948C16.6692 38.4085 16.3402 37.6135 16.3404 36.7847C16.3406 35.9558 16.67 35.161 17.2563 34.575L26.8313 25L17.2563 15.425C16.6867 14.8359 16.3714 14.0466 16.3781 13.2273C16.3848 12.4079 16.7131 11.624 17.2922 11.0443C17.8714 10.4646 18.655 10.1356 19.4744 10.1281C20.2937 10.1206 21.0833 10.4352 21.6729 11.0042L33.4604 22.7896L33.4583 22.7917Z" fill="#745258"/>
</g>
</g>
<defs>
<clipPath id="clip0_37_63">
<rect width="50" height="50" fill="white"/>
</clipPath>
</defs>
</svg>
