<svg width="50" height="50" viewBox="0 0 50 50" fill="none" xmlns="http://www.w3.org/2000/svg">
<g id="Previous Image" clip-path="url(#clip0_37_59)">
<g id="Previous Image_2">
<path id="Vector" fill-rule="evenodd" clip-rule="evenodd" d="M16.5417 27.2083C15.9565 26.6224 15.6277 25.8281 15.6277 25C15.6277 24.1719 15.9565 23.3776 16.5417 22.7917L28.325 11.0042C28.9112 10.4182 29.7062 10.0891 30.5351 10.0893C30.9455 10.0894 31.3519 10.1704 31.731 10.3275C32.1102 10.4847 32.4546 10.7149 32.7448 11.0052C33.0349 11.2955 33.2651 11.6401 33.422 12.0193C33.579 12.3985 33.6597 12.8049 33.6596 13.2153C33.6595 13.6257 33.5786 14.0321 33.4215 14.4113C33.2643 14.7904 33.034 15.1349 32.7437 15.425L23.1708 25L32.7458 34.575C33.0444 34.8631 33.2827 35.2079 33.4466 35.589C33.6106 35.9702 33.697 36.3802 33.7008 36.7952C33.7046 37.2101 33.6257 37.6216 33.4687 38.0058C33.3118 38.3899 33.0799 38.7389 32.7867 39.0325C32.4934 39.326 32.1446 39.5582 31.7606 39.7155C31.3766 39.8728 30.9652 39.9521 30.5502 39.9487C30.1353 39.9453 29.7252 39.8593 29.3439 39.6957C28.9625 39.5321 28.6176 39.2942 28.3292 38.9958L16.5375 27.2083H16.5417Z" fill="#745258"/>
</g>
</g>
<defs>
<clipPath id="clip0_37_59">
<rect width="50" height="50" fill="white"/>
</clipPath>
</defs>
</svg>
