<svg width="40" height="40" viewBox="0 0 40 40" fill="none" xmlns="http://www.w3.org/2000/svg">
<path id="Search Logo" d="M29.3307 25.7963H27.4772L26.8203 25.1632C28.2865 23.4608 29.3582 21.4555 29.9584 19.2909C30.5587 17.1263 30.6729 14.8558 30.2927 12.6419C29.1899 6.12333 23.7468 0.917852 17.1775 0.120616C14.8679 -0.171393 12.5221 0.068495 10.3196 0.821924C8.11711 1.57535 6.11624 2.82235 4.47012 4.4675C2.82401 6.11265 1.57628 8.11235 0.822406 10.3136C0.0685351 12.5148 -0.171494 14.8592 0.120687 17.1674C0.918391 23.7329 6.12693 29.1728 12.6493 30.2749C14.8645 30.6549 17.1363 30.5408 19.3022 29.9409C21.4681 29.3409 23.4746 28.27 25.178 26.8046L25.8114 27.4611V29.3135L35.7827 39.279C36.7447 40.2403 38.3166 40.2403 39.2786 39.279C40.2405 38.3176 40.2405 36.7466 39.2786 35.7852L29.3307 25.7963ZM15.2536 25.7963C9.41159 25.7963 4.69575 21.0832 4.69575 15.2447C4.69575 9.40607 9.41159 4.693 15.2536 4.693C21.0956 4.693 25.8114 9.40607 25.8114 15.2447C25.8114 21.0832 21.0956 25.7963 15.2536 25.7963Z" fill="#B0DCC5"/>
</svg>
