<svg width="20" height="20" viewBox="0 0 20 20" fill="none" xmlns="http://www.w3.org/2000/svg">
<g id="Star">
<path id="Vector" d="M7.15583 6.86333L9.32084 2.50333C9.38386 2.37715 9.48078 2.27102 9.60074 2.19684C9.72071 2.12267 9.85896 2.08337 10 2.08337C10.141 2.08337 10.2793 2.12267 10.3993 2.19684C10.5192 2.27102 10.6161 2.37715 10.6792 2.50333L12.8442 6.86333L17.6842 7.56666C17.8238 7.58602 17.9551 7.64424 18.0632 7.73467C18.1713 7.8251 18.2518 7.94411 18.2955 8.0781C18.3392 8.21209 18.3444 8.35567 18.3104 8.49245C18.2764 8.62924 18.2047 8.75371 18.1033 8.85166L14.6017 12.2433L15.4283 17.035C15.5342 17.65 14.8842 18.1183 14.3283 17.8283L10 15.565L5.67083 17.8283C5.11583 18.1192 4.46583 17.65 4.57167 17.0342L5.39833 12.2425L1.89667 8.85083C1.79582 8.75281 1.7245 8.62846 1.6908 8.49192C1.65711 8.35538 1.66239 8.21213 1.70606 8.07845C1.74972 7.94476 1.83002 7.82601 1.93781 7.73569C2.0456 7.64536 2.17657 7.58709 2.31583 7.56749L7.15583 6.86333Z" stroke="black" stroke-width="1.5" stroke-linecap="round" stroke-linejoin="round"/>
</g>
</svg>
