<svg width="40" height="40" viewBox="0 0 40 40" fill="none" xmlns="http://www.w3.org/2000/svg">
<path id="Home Logo" d="M39.5149 29.2854L33.5147 22.8567H35.557C35.9636 22.8572 36.3626 22.7619 36.7104 22.5813C37.0582 22.4007 37.3414 22.1417 37.5292 21.8326C37.717 21.5234 37.8021 21.176 37.7753 20.8282C37.7484 20.4805 37.6107 20.1457 37.3771 19.8604L21.8211 0.812303C21.4828 0.398618 20.9668 0.116918 20.3864 0.0290622C19.806 -0.0587939 19.2086 0.0543753 18.7255 0.343719C18.5344 0.466045 18.3685 0.614743 18.2343 0.783731C18.1788 0.812303 2.62283 19.8604 2.62283 19.8604C2.38991 20.146 2.25283 20.4808 2.2265 20.8285C2.20017 21.1762 2.28561 21.5234 2.47352 21.8324C2.66142 22.1414 2.9446 22.4002 3.29222 22.5808C3.63985 22.7614 4.03861 22.8568 4.4451 22.8567H6.48738L0.487224 29.2854C-0.0461227 29.8588 -0.15057 30.6417 0.218328 31.3026C0.589449 31.9598 1.36947 32.3808 2.22282 32.3808H17.7788V38.0952C17.7788 38.6004 18.0129 39.0849 18.4297 39.4421C18.8464 39.7993 19.4117 40 20.0011 40C20.5904 40 21.1557 39.7993 21.5724 39.4421C21.9892 39.0849 22.2233 38.6004 22.2233 38.0952V32.3808H37.7793C38.1977 32.3801 38.6074 32.2784 38.9613 32.0872C39.3153 31.8961 39.5992 31.6232 39.7805 31.3C39.9617 30.9768 40.0329 30.6163 39.9859 30.2599C39.939 29.9036 39.7757 29.5658 39.5149 29.2854ZM22.2233 28.5711V19.0471C22.2233 18.5419 21.9892 18.0574 21.5724 17.7002C21.1557 17.3429 20.5904 17.1423 20.0011 17.1423C19.4117 17.1423 18.8464 17.3429 18.4297 17.7002C18.0129 18.0574 17.7788 18.5419 17.7788 19.0471V28.5711H6.84739L12.8475 22.1424C13.3809 21.569 13.4853 20.7862 13.1164 20.1252C12.9339 19.8024 12.6491 19.5302 12.2947 19.3396C11.9402 19.1489 11.5304 19.0476 11.1119 19.0471H8.71188L20.0011 5.22575L31.2902 19.0471H28.8902C28.472 19.048 28.0626 19.15 27.7089 19.3413C27.3553 19.5326 27.0717 19.8055 26.8907 20.1287C26.7098 20.4518 26.6387 20.8122 26.6858 21.1683C26.7329 21.5245 26.8961 21.8621 27.1568 22.1424L33.1569 28.5711H22.2233Z" fill="#B0DCC5"/>
</svg>
