<svg width="103" height="145" viewBox="0 0 103 145" fill="none" xmlns="http://www.w3.org/2000/svg">
<g id="Item1">
<rect id="WTYL1 Photo" width="103" height="100" fill="#D9D9D9"/>
<path id="WTYL1 No" d="M71.3885 115L66 120.389L68.7516 123.14L75.5541 130.057L68.7516 136.86L66 139.497L71.3885 145L74.1401 142.248L81.0573 135.331L87.8599 142.248L90.4968 145L96 139.497L93.2484 136.86L86.3312 130.057L93.2484 123.14L96 120.389L90.4968 115L87.8599 117.752L81.0573 124.554L74.1401 117.752L71.3885 115Z" fill="#664147"/>
<path id="WTYL1 Yes" d="M34.3031 111L18.4969 132.621L13.3969 125.645L9 131.664L18.75 145L23.1094 139.044L23.1469 139.094L39 117.422L34.3031 111Z" fill="#38B39C"/>
</g>
</svg>
