<svg width="40" height="40" viewBox="0 0 40 40" fill="none" xmlns="http://www.w3.org/2000/svg">
<path id="User Logo" d="M39.737 36.4798C37.1979 31.8605 33.2331 28.2612 28.4809 26.2613C30.8442 24.4241 32.5898 21.8626 33.4706 18.9398C34.3514 16.0169 34.3227 12.8809 33.3885 9.97598C32.4544 7.07101 30.6622 4.54435 28.2657 2.7539C25.8693 0.96346 22.9901 0 20.0361 0C17.0821 0 14.2029 0.96346 11.8065 2.7539C9.41002 4.54435 7.61779 7.07101 6.68364 9.97598C5.74949 12.8809 5.72078 16.0169 6.60158 18.9398C7.48238 21.8626 9.22803 24.4241 11.5913 26.2613C6.83904 28.2612 2.87427 31.8605 0.335181 36.4798C0.17785 36.742 0.0729898 37.0344 0.026834 37.3395C-0.0193219 37.6446 -0.00583119 37.9561 0.0665044 38.2557C0.13884 38.5553 0.268544 38.8367 0.447905 39.0833C0.627265 39.3299 0.852622 39.5365 1.11058 39.691C1.36853 39.8455 1.65382 39.9447 1.94948 39.9826C2.24514 40.0205 2.54513 39.9964 2.83163 39.9117C3.11812 39.8271 3.38527 39.6835 3.6172 39.4897C3.84912 39.2959 4.04107 39.0557 4.18166 38.7834C7.53737 32.771 13.4636 29.185 20.0361 29.185C26.6086 29.185 32.5348 32.7729 35.8905 38.7834C36.1952 39.2912 36.6784 39.6563 37.2381 39.8015C37.7977 39.9468 38.3899 39.8607 38.8894 39.5615C39.3889 39.2623 39.7567 38.7736 39.9148 38.1985C40.073 37.6234 40.0092 37.007 39.737 36.4798ZM10.406 14.5954C10.406 12.6211 10.9708 10.6911 12.029 9.04947C13.0871 7.40788 14.5912 6.12841 16.3508 5.37287C18.1105 4.61733 20.0468 4.41964 21.9148 4.80482C23.7829 5.18999 25.4988 6.14072 26.8456 7.53678C28.1924 8.93284 29.1096 10.7115 29.4811 12.6479C29.8527 14.5843 29.662 16.5914 28.9331 18.4155C28.2042 20.2395 26.9699 21.7985 25.3863 22.8954C23.8026 23.9923 21.9407 24.5777 20.0361 24.5777C17.4829 24.5747 15.0352 23.522 13.2298 21.6506C11.4245 19.7792 10.409 17.2419 10.406 14.5954Z" fill="#B0DCC5"/>
</svg>
