<svg width="40" height="40" viewBox="0 0 40 40" fill="none" xmlns="http://www.w3.org/2000/svg">
<g id="Back Button" clip-path="url(#clip0_37_574)">
<g id="Back Button_2">
<path id="Vector" fill-rule="evenodd" clip-rule="evenodd" d="M13.2333 21.7667C12.7652 21.2979 12.5022 20.6625 12.5022 20C12.5022 19.3375 12.7652 18.7021 13.2333 18.2333L22.66 8.80332C23.129 8.33455 23.765 8.07129 24.4281 8.07144C24.7564 8.07152 25.0815 8.13627 25.3848 8.26198C25.6881 8.3877 25.9637 8.57193 26.1958 8.80415C26.4279 9.03637 26.612 9.31204 26.7376 9.61541C26.8632 9.91878 26.9278 10.2439 26.9277 10.5722C26.9276 10.9006 26.8629 11.2257 26.7372 11.529C26.6114 11.8323 26.4272 12.1079 26.195 12.34L18.5367 20L26.1967 27.66C26.4355 27.8905 26.6261 28.1663 26.7573 28.4712C26.8885 28.7762 26.9576 29.1042 26.9606 29.4361C26.9637 29.7681 26.9006 30.0973 26.775 30.4046C26.6494 30.7119 26.4639 30.9911 26.2293 31.2259C25.9947 31.4608 25.7157 31.6466 25.4085 31.7724C25.1013 31.8982 24.7721 31.9617 24.4402 31.9589C24.1082 31.9562 23.7802 31.8874 23.4751 31.7565C23.17 31.6256 22.8941 31.4353 22.6633 31.1967L13.23 21.7667H13.2333Z" fill="#745258"/>
</g>
</g>
<defs>
<clipPath id="clip0_37_574">
<rect width="40" height="40" fill="white"/>
</clipPath>
</defs>
</svg>
