<svg width="20" height="20" viewBox="0 0 20 20" fill="none" xmlns="http://www.w3.org/2000/svg">
<g id="Buyer Profile Picture" clip-path="url(#clip0_51_525)">
<g id="Group">
<path id="Vector" fill-rule="evenodd" clip-rule="evenodd" d="M10 1.86499C14.6025 1.86499 18.3333 5.4478 18.3333 9.8677C18.3363 11.7146 17.6712 13.5052 16.4517 14.9334L16.4683 14.951L16.3583 15.0406C15.5769 15.9283 14.603 16.6415 13.5048 17.1302C12.4065 17.619 11.2104 17.8716 10 17.8704C7.54167 17.8704 5.33333 16.8485 3.80833 15.2239L3.64167 15.0398L3.53167 14.9518L3.54833 14.9326C2.32896 13.5047 1.66385 11.7144 1.66667 9.8677C1.66667 5.4478 5.3975 1.86499 10 1.86499ZM10 13.8691C8.45 13.8691 7.04916 14.3428 6.00583 14.9942C7.15784 15.8243 8.55976 16.2721 10 16.2699C11.4402 16.2721 12.8422 15.8243 13.9942 14.9942C12.802 14.2606 11.416 13.8701 10 13.8691ZM10 3.46553C8.74543 3.4655 7.51632 3.80542 6.45393 4.44622C5.39155 5.08703 4.539 6.00271 3.9943 7.08801C3.44959 8.17332 3.23484 9.3842 3.37471 10.5815C3.51458 11.7788 4.00341 12.9138 4.785 13.8562C6.13583 12.9255 7.97917 12.2685 10 12.2685C12.0208 12.2685 13.8642 12.9255 15.215 13.8562C15.9966 12.9138 16.4854 11.7788 16.6253 10.5815C16.7652 9.3842 16.5504 8.17332 16.0057 7.08801C15.461 6.00271 14.6085 5.08703 13.5461 4.44622C12.4837 3.80542 11.2546 3.4655 10 3.46553ZM10 5.06607C10.8841 5.06607 11.7319 5.40333 12.357 6.00365C12.9821 6.60397 13.3333 7.41818 13.3333 8.26716C13.3333 9.11614 12.9821 9.93034 12.357 10.5307C11.7319 11.131 10.8841 11.4682 10 11.4682C9.11594 11.4682 8.2681 11.131 7.64298 10.5307C7.01785 9.93034 6.66667 9.11614 6.66667 8.26716C6.66667 7.41818 7.01785 6.60397 7.64298 6.00365C8.2681 5.40333 9.11594 5.06607 10 5.06607ZM10 6.66662C9.55797 6.66662 9.13405 6.83524 8.82149 7.1354C8.50893 7.43556 8.33333 7.84267 8.33333 8.26716C8.33333 8.69165 8.50893 9.09875 8.82149 9.39891C9.13405 9.69907 9.55797 9.8677 10 9.8677C10.442 9.8677 10.8659 9.69907 11.1785 9.39891C11.4911 9.09875 11.6667 8.69165 11.6667 8.26716C11.6667 7.84267 11.4911 7.43556 11.1785 7.1354C10.8659 6.83524 10.442 6.66662 10 6.66662Z" fill="black"/>
</g>
</g>
<defs>
<clipPath id="clip0_51_525">
<rect width="20" height="19.2065" fill="white" transform="translate(0 0.264404)"/>
</clipPath>
</defs>
</svg>
