<svg width="20" height="25" viewBox="0 0 20 25" fill="none" xmlns="http://www.w3.org/2000/svg">
<path id="Email Edit" d="M0 19.3525V24.4444H4.1661L16.4533 9.42673L12.2872 4.33483L0 19.3525ZM19.6751 5.48899C19.7781 5.36338 19.8598 5.21416 19.9156 5.0499C19.9713 4.88564 20 4.70955 20 4.53172C20 4.35388 19.9713 4.17779 19.9156 4.01353C19.8598 3.84927 19.7781 3.70006 19.6751 3.57444L17.0755 0.397092C16.9727 0.271216 16.8506 0.17135 16.7162 0.103211C16.5818 0.035073 16.4377 0 16.2922 0C16.1467 0 16.0027 0.035073 15.8683 0.103211C15.7339 0.17135 15.6118 0.271216 15.509 0.397092L13.4759 2.88194L17.642 7.97384L19.6751 5.48899Z" fill="black"/>
</svg>
